<svg xmlns="http://www.w3.org/2000/svg" viewBox="0 0 217.29 32"><defs><style>.cls-1{fill:#fff;}.cls-2{fill:#fb0;}</style></defs><title>logo2_1</title><g id="Слой_2" data-name="Слой 2"><g id="Слой_1-2" data-name="Слой 1"><path id="pearl" class="cls-1" d="M0,31.47H4.56v-6.9a6.17,6.17,0,0,0,5,2.4c3.81,0,7.32-2.94,7.32-8.31s-3.57-8.37-7.32-8.37a5.91,5.91,0,0,0-5,2.61V10.59H0ZM8.4,23.1c-2.13,0-3.9-1.77-3.9-4.44s1.77-4.5,3.9-4.5,3.93,1.77,3.93,4.44-1.8,4.5-3.93,4.5ZM27.12,27a8,8,0,0,0,6.57-3l-2.61-2.31a5.27,5.27,0,0,1-3.9,1.65,3.73,3.73,0,0,1-3.93-3.15H34.44c0-.42.06-.84.06-1.2,0-4.56-2.46-8.73-7.83-8.73-4.68,0-7.95,3.78-7.95,8.37A8.06,8.06,0,0,0,26.45,27h.67Zm-3.93-9.66c.36-2.07,1.59-3.42,3.48-3.42s3.12,1.38,3.39,3.42H23.19ZM41.7,27a6.18,6.18,0,0,0,4.86-2v1.74H51V17.34a7,7,0,0,0-1.74-5.13,7.42,7.42,0,0,0-5.43-1.8,14.19,14.19,0,0,0-6.24,1.29l1.14,3.48a11.83,11.83,0,0,1,4.44-.87c2.28,0,3.45,1.05,3.45,2.94v.27a11.43,11.43,0,0,0-3.93-.66c-3.81,0-6.48,1.62-6.48,5.13,0,3.24,2.49,5,5.52,5Zm1.38-3.15c-1.47,0-2.49-.72-2.49-2,0-1.5,1.2-2.28,3.15-2.28a7.07,7.07,0,0,1,2.91.6V21c0,1.65-1.44,2.82-3.57,2.82Zm11.07,2.85h4.56V20.73c0-3.84,1.86-5.67,4.89-5.67h.24V10.29c-2.7-.12-4.2,1.32-5.13,3.54V10.59H54.15Zm12,0h4.56V4.77H66.15v21.9Z"/><path class="cls-2" d="M215.29,2V30h-137V2h137m2-2h-141V32h141V0Z"/><path id="furniture" class="cls-2" d="M85.42,26.63h2.3V13.41h4.87V11.46h-4.9V10.23C87.69,8,88.59,7,90.38,7a7.79,7.79,0,0,1,2.24.38v-2A7.08,7.08,0,0,0,90.08,5a4.59,4.59,0,0,0-3.32,1.18,5.33,5.33,0,0,0-1.35,3.92v1.33H83.3v2h2.12ZM101.5,27a5.9,5.9,0,0,0,5.29-3v2.65h2.27V11.4h-2.27v8.72a4.53,4.53,0,0,1-4.28,4.77h-.36c-2.72,0-4.27-1.77-4.27-4.59V11.4h-2.3v9.45c0,3.63,2.18,6.1,5.92,6.1Zm13-.32h2.3V20.56c0-4.6,2.75-7,6.13-7h.18V11.14a6.62,6.62,0,0,0-6.31,4.24v-4h-2.3Zm12.4,0h2.3V17.91a4.51,4.51,0,0,1,4.24-4.77h.39c2.72,0,4.27,1.77,4.27,4.59v8.9h2.3V17.18c0-3.62-2.18-6.1-5.92-6.1a5.87,5.87,0,0,0-5.29,3V11.4h-2.3V26.63ZM145.71,8.08h2.63V5.58h-2.63Zm.15,18.56h2.3V11.4h-2.3ZM159,26.9a5.85,5.85,0,0,0,2.78-.65v-2a4.9,4.9,0,0,1-2.24.53c-1.55,0-2.6-.68-2.6-2.53V13.4h4.9v-2h-4.9V6.81h-2.3V11.4h-2.15v2h2.15v9.2C154.62,25.69,156.5,26.9,159,26.9Zm12.88.06a5.9,5.9,0,0,0,5.29-3v2.65h2.27V11.4h-2.27v8.72a4.53,4.53,0,0,1-4.28,4.77h-.36c-2.72,0-4.27-1.77-4.27-4.59V11.4h-2.3v9.45c0,3.63,2.18,6.1,5.92,6.1Zm13-.32h2.3V20.56c0-4.6,2.75-7,6.13-7h.18V11.14a6.62,6.62,0,0,0-6.31,4.24v-4h-2.3V26.63ZM198,19.95h12.25c0-.35,0-.59,0-.8,0-4.48-2.63-8.07-7.2-8.07-4.27,0-7.41,3.53-7.41,8A7.63,7.63,0,0,0,203,27h.41a8,8,0,0,0,6.37-2.86l-1.43-1.27A6.43,6.43,0,0,1,203.46,25,5.37,5.37,0,0,1,198,19.95Zm0-1.83c.33-2.94,2.36-5.12,5-5.12,3,0,4.66,2.36,4.93,5.13Z"/></g></g></svg>